<svg xmlns="http://www.w3.org/2000/svg" viewBox="0 0 351.391 106.556"><g fill="#343434"><path d="M153.537 13.542c-10.553 0-15.906 5.936-15.906 11.781 0 5.877 5.321 11.719 15.906 11.719 9.416-.348 14.531-6.529 14.531-12.438 0-5.656-4.641-11.062-14.531-11.062zm-46.719.687c-1.568.009-3.102.031-4.531.062-1.137.063-2.06.665-2.25 2.75l.031 17.156c.19 1.422 1.112 2.188 2.281 2.188h8.969c.916 0 1.719-.608 1.719-2.156v-5.438c0-1.011.269-1.594 1.375-1.594h4.719c.916 0 1.562-.105 1.562-1.938 0-1.801-.678-1.938-1.531-1.938h-5.25c-.569 0-.812-.337-.812-.969v-2.25c0-.948.521-1.625 1.438-1.625h6.906c1.106 0 1.656-.458 1.656-1.406 0-1.232-.295-2.812-1.875-2.812-4.551.001-9.702-.056-14.407-.03zm134.906 0c-4.392 0-8.946.031-11 .062-.664 0-1.437.429-1.5 1.188-.095 1.137-.063 2.3 0 3.406.032.758.678 1.219 1.531 1.219h2.844c.79 0 1.062.398 1.062 1.188-.032 1.58-.031 3.077-.031 4.562 0 2.717.031 5.434.094 8.625.032.853.798 1.811 2.125 1.906 1.58.095 3.327.156 4.812.156 1.359 0 2.798-.061 4.156-.156 1.327-.095 2.093-1.053 2.125-1.906.063-1.959.094-3.854.094-5.781 0-2.465-.031-4.94-.094-7.594 0-.727.304-1.094 1.062-1.094h2.844c.853 0 1.5-.46 1.531-1.219.063-1.106.095-2.175 0-3.312-.063-.758-.836-1.156-1.5-1.188-1.515-.031-5.763-.062-10.155-.062zm-54.656.063c-1.548 0-1.843 1.105-1.875 2.906-.032 1.991-.031 5.442-.031 7.906 0 3.191-.001 5.552.094 9.344.032.853.644 1.843 1.75 1.906 1.39.095 2.264.064 3.812-.062.664-.063 1.469-.491 1.469-1.344v-3.5c0-1.011.37-1.315.844-1.125 1.327.664 6.596 3.733 9.219 5.281.853.506 1.426.781 2.438.781h5.281c1.137 0 1.749-1.053 1.812-1.906.221-2.559.25-6.025.25-9.469 0-3.191-.124-6.567-.219-8.969-.063-1.485-.579-1.75-1.938-1.75h-3.375c-.79 0-1.25.616-1.25 1.438v4.437c0 .664-.43.973-1.156.625-3.602-1.801-7.362-3.789-11.438-5.906-.664-.348-1.46-.594-2.219-.594h-3.468zm-31.437 6.718c2.907 0 4.156 1.981 4.156 3.688 0 1.959-1.75 4.031-4.594 4.031-2.243 0-4.531-1.317-4.531-3.781 0-1.959 1.619-3.938 4.969-3.938zM108.849 69.729c-1.927 0-3.614.763-4.594 2.469l-9.906 17.438c-.6 1.043-.895 2.531.906 2.531h2.844c.948 0 1.37-.179 1.781-.969l1.25-2.562c.316-.664.804-.688 1.562-.688h5.969c.727.063 1.59.273 1.938 1.031l.906 1.969c.348.727.543 1.219 2.344 1.219h10.188c.853 0 1.875-.332 1.875-1.406 0-.442-.183-1.023-.625-1.75l-10.312-17.469c-.758-1.295-2.235-1.812-3.594-1.812h-2.532zm-42.937.219c-3.665 0-7.437.03-10.375.125-1.896.063-2.186 1.105-2.312 2.938a151.91 151.91 0 0 0-.219 8.25c0 3.223.029 6.505.25 8.938.095.885.829 1.938 2.156 1.938 10.048.095 10.433.094 10.812.094 2.433 0 4.821-.093 6.875-.188 5.593-.221 7.719-3.812 7.719-6.688 0-2.78-1.821-4.775-3.875-5.344-.316-.095-.316-.373 0-.531 1.643-.885 2.25-2.137 2.25-3.875 0-2.875-2.716-5.405-5.812-5.562-2.18-.096-4.752-.095-7.469-.095zm173.094.062c-1.864 0-3.817 0-6.219.031-1.896.032-2.624 1.074-2.75 2.875-.158 2.149-.188 5.405-.188 8.406 0 3.191.029 6.442.25 8.875.095.853.798 1.843 2.125 1.938 1.801.095 3.605.156 5.406.156a68.73 68.73 0 0 0 3.625-.094c1.232-.063 1.781-.584 1.781-1.438V87.54c0-.569.527-.598.875-.188l2.719 4.125c.6.569 1.056.719 1.656.719 1.611.032 5.139.032 6.75 0 .664 0 .974-.775.5-1.312-1.453-1.643-2.923-3.359-4.281-4.781 2.654-1.485 3.844-4.065 3.844-6.688 0-4.487-3.44-9.249-8.906-9.344-2.717-.061-4.912-.061-7.187-.061zm-97.157.032c-1.896 0-2.155 1.105-2.281 2.938-.158 2.149-.188 5.154-.188 8.188 0 3.223.029 6.473.25 8.906.095.885.829 1.874 2.156 1.969 1.675.095 3.265.125 4.781.125 1.485 0 2.984-.03 4.469-.125.822-.063 1.719-.491 1.719-1.312v-3c0-.853.276-1.219.719-1.219.379 0 .777.214 1.156.688l3.719 4.438c.316.348.711.531 1.438.531h8.5c1.548 0 2.201-1.765 1-3.219-2.117-2.559-6.69-6.971-9.344-9.625-.442-.442-.506-.776 0-1.219a113.424 113.424 0 0 0 7.281-6.719c.506-.506.164-1.344-.5-1.344a122.222 122.222 0 0 0-4.844 0c-.6 0-1.087.181-1.688.75l-6.188 5.781c-.316.253-.591.531-.875.531-.158 0-.344-.182-.344-.656l-.031-3.562c0-1.58-1.047-2.844-2.438-2.844h-8.467zm52.688 0c-1.565.013-3.07.023-4.5.062-1.137.032-2.06.633-2.25 2.719-.19 1.769-.219 5.337-.219 8.812 0 3.507.029 6.891.219 8.312.19 1.422 1.113 2.219 2.25 2.219h19.5c.916 0 1.781-1.229 1.781-3.188 0-1.232-.869-1.469-1.438-1.469h-7.875c-1.011 0-1.281-.585-1.281-1.375v-1.531c0-1.043.269-1.625 1.375-1.625h5.156c.948 0 1.531-.137 1.531-1.938 0-1.833-.647-1.938-1.469-1.938h-5.75c-.569 0-.844-.368-.844-.969v-2.281c0-.916.521-1.562 1.438-1.562h6.969c1.295 0 1.625-.864 1.625-1.875 0-1.137-.327-2.375-1.875-2.375-4.526.002-9.648-.038-14.343.002zm87.406 0l-10.812.062c-1.485 0-2.01 1.359-1.062 2.781l6.375 10.719c0 2.717-.001 3.465.062 6.656.032.853.798 1.811 2.125 1.906 1.58.095 3.327.125 4.812.125 1.359 0 2.798-.03 4.156-.125 1.327-.095 2.093-1.053 2.125-1.906.063-1.959.156-5.541.156-7.469l7.062-11.219c.506-.695.414-1.531-.281-1.531h-4.094c-.632 0-.996.214-1.375.688l-3.219 5.031c-.348.411-.623.594-.844.594-.253 0-.434-.245-.781-.719l-1.938-4.125c-.788-1.105-1.171-1.468-2.467-1.468zM66.631 73.635c2.465-.095 3.188.735 3.188 2.062 0 1.201-1.071 1.812-3.188 1.812-.537 0-.719-.341-.719-.594l-.031-2.594c0-.472.244-.686.75-.686zm177.125 2.157c2.907 0 4.156 1.855 4.156 3.656 0 1.833-1.407 3.656-4.188 3.656-.6 0-.656-.278-.656-.594l-.062-5.844c0-.6.213-.874.75-.874zm-138.094 3.093c.474 0 .747.212 1.031.812l1.188 2.719c.348.79-.209 1.406-1.062 1.406h-2.875c-.695 0-.941-.649-.656-1.312l1.438-2.875c.22-.442.588-.75.936-.75zm-38.156 3.032c1.681.018 3.5.721 3.5 2.656 0 2.496-2.163 3.25-4.438 3.25-.442 0-.688-.371-.688-.719l.031-4.094c0-.822.401-1.031.875-1.062.23-.024.479-.034.72-.031z"/><path fill-rule="evenodd" clip-rule="evenodd" d="M175.912 43.635c-.611 0-1.22.215-1.688.656l-5.156 4.844-157.625 2.469 157.625 2.438 5.156 4.844a2.483 2.483 0 0 0 3.375 0l5.156-4.844 157.75-2.438-157.75-2.469-5.156-4.844a2.444 2.444 0 0 0-1.687-.656z"/></g></svg>