<?xml version="1.0" encoding="iso-8859-1"?>
<!-- Generator: Adobe Illustrator 24.0.0, SVG Export Plug-In . SVG Version: 6.00 Build 0)  -->
<svg version="1.1" id="Layer_1" xmlns="http://www.w3.org/2000/svg" xmlns:xlink="http://www.w3.org/1999/xlink" x="0px" y="0px"
	 viewBox="0 0 351.391 106.556" enable-background="new 0 0 351.391 106.556" xml:space="preserve">
<g id="g4077">
	<path id="text18282-2" fill="#343434" d="M153.537,13.542c-10.553,0-15.906,5.936-15.906,11.781
		c0,5.877,5.321,11.719,15.906,11.719c9.416-0.348,14.531-6.529,14.531-12.438C168.068,18.948,163.427,13.542,153.537,13.542z
		 M106.818,14.229c-1.568,0.009-3.102,0.031-4.531,0.062c-1.137,0.063-2.06,0.665-2.25,2.75l0.031,17.156
		c0.19,1.422,1.112,2.188,2.281,2.188h8.969c0.916,0,1.719-0.608,1.719-2.156v-5.438c0-1.011,0.269-1.594,1.375-1.594h4.719
		c0.916,0,1.562-0.105,1.562-1.938c0-1.801-0.678-1.938-1.531-1.938h-5.25c-0.569,0-0.812-0.337-0.812-0.969v-2.25
		c0-0.948,0.521-1.625,1.438-1.625h6.906c1.106,0,1.656-0.458,1.656-1.406c0-1.232-0.295-2.812-1.875-2.812
		C116.674,14.26,111.523,14.203,106.818,14.229L106.818,14.229z M241.724,14.229c-4.392,0-8.946,0.031-11,0.062
		c-0.664,0-1.437,0.429-1.5,1.188c-0.095,1.137-0.063,2.3,0,3.406c0.032,0.758,0.678,1.219,1.531,1.219h2.844
		c0.79,0,1.062,0.398,1.062,1.188c-0.032,1.58-0.031,3.077-0.031,4.562c0,2.717,0.031,5.434,0.094,8.625
		c0.032,0.853,0.798,1.811,2.125,1.906c1.58,0.095,3.327,0.156,4.812,0.156c1.359,0,2.798-0.061,4.156-0.156
		c1.327-0.095,2.093-1.053,2.125-1.906c0.063-1.959,0.094-3.854,0.094-5.781c0-2.465-0.031-4.94-0.094-7.594
		c0-0.727,0.304-1.094,1.062-1.094h2.844c0.853,0,1.5-0.46,1.531-1.219c0.063-1.106,0.095-2.175,0-3.312
		c-0.063-0.758-0.836-1.156-1.5-1.188C250.364,14.26,246.116,14.229,241.724,14.229z M187.068,14.292
		c-1.548,0-1.843,1.105-1.875,2.906c-0.032,1.991-0.031,5.442-0.031,7.906c0,3.191-0.001,5.552,0.094,9.344
		c0.032,0.853,0.644,1.843,1.75,1.906c1.39,0.095,2.264,0.064,3.812-0.062c0.664-0.063,1.469-0.491,1.469-1.344v-3.5
		c0-1.011,0.37-1.315,0.844-1.125c1.327,0.664,6.596,3.733,9.219,5.281c0.853,0.506,1.426,0.781,2.438,0.781h5.281
		c1.137,0,1.749-1.053,1.812-1.906c0.221-2.559,0.25-6.025,0.25-9.469c0-3.191-0.124-6.567-0.219-8.969
		c-0.063-1.485-0.579-1.75-1.938-1.75h-3.375c-0.79,0-1.25,0.616-1.25,1.438v4.437c0,0.664-0.43,0.973-1.156,0.625
		c-3.602-1.801-7.362-3.789-11.438-5.906c-0.664-0.348-1.46-0.594-2.219-0.594H187.068z M155.631,21.01
		c2.907,0,4.156,1.981,4.156,3.688c0,1.959-1.75,4.031-4.594,4.031c-2.243,0-4.531-1.317-4.531-3.781
		C150.662,22.989,152.281,21.01,155.631,21.01z"/>
	<path id="text18286-8" fill="#343434" d="M108.849,69.729c-1.927,0-3.614,0.763-4.594,2.469l-9.906,17.438
		c-0.6,1.043-0.895,2.531,0.906,2.531h2.844c0.948,0,1.37-0.179,1.781-0.969l1.25-2.562c0.316-0.664,0.804-0.688,1.562-0.688h5.969
		c0.727,0.063,1.59,0.273,1.938,1.031l0.906,1.969c0.348,0.727,0.543,1.219,2.344,1.219h10.188c0.853,0,1.875-0.332,1.875-1.406
		c0-0.442-0.183-1.023-0.625-1.75l-10.312-17.469c-0.758-1.295-2.235-1.812-3.594-1.812H108.849z M65.912,69.948
		c-3.665,0-7.437,0.03-10.375,0.125c-1.896,0.063-2.186,1.105-2.312,2.938c-0.126,2.149-0.219,5.248-0.219,8.25
		c0,3.223,0.029,6.505,0.25,8.938c0.095,0.885,0.829,1.938,2.156,1.938c10.048,0.095,10.433,0.094,10.812,0.094
		c2.433,0,4.821-0.093,6.875-0.188c5.593-0.221,7.719-3.812,7.719-6.688c0-2.78-1.821-4.775-3.875-5.344
		c-0.316-0.095-0.316-0.373,0-0.531c1.643-0.885,2.25-2.137,2.25-3.875c0-2.875-2.716-5.405-5.812-5.562
		C71.201,69.947,68.629,69.948,65.912,69.948z M239.006,70.01c-1.864,0-3.817,0-6.219,0.031c-1.896,0.032-2.624,1.074-2.75,2.875
		c-0.158,2.149-0.188,5.405-0.188,8.406c0,3.191,0.029,6.442,0.25,8.875c0.095,0.853,0.798,1.843,2.125,1.938
		c1.801,0.095,3.605,0.156,5.406,0.156c1.232,0,2.424-0.031,3.625-0.094c1.232-0.063,1.781-0.584,1.781-1.438v-3.219
		c0-0.569,0.527-0.598,0.875-0.188l2.719,4.125c0.6,0.569,1.056,0.719,1.656,0.719c1.611,0.032,5.139,0.032,6.75,0
		c0.664,0,0.974-0.775,0.5-1.312c-1.453-1.643-2.923-3.359-4.281-4.781c2.654-1.485,3.844-4.065,3.844-6.688
		c0-4.487-3.44-9.249-8.906-9.344C243.476,70.01,241.281,70.01,239.006,70.01z M141.849,70.042c-1.896,0-2.155,1.105-2.281,2.938
		c-0.158,2.149-0.188,5.154-0.188,8.188c0,3.223,0.029,6.473,0.25,8.906c0.095,0.885,0.829,1.874,2.156,1.969
		c1.675,0.095,3.265,0.125,4.781,0.125c1.485,0,2.984-0.03,4.469-0.125c0.822-0.063,1.719-0.491,1.719-1.312v-3
		c0-0.853,0.276-1.219,0.719-1.219c0.379,0,0.777,0.214,1.156,0.688l3.719,4.438c0.316,0.348,0.711,0.531,1.438,0.531h8.5
		c1.548,0,2.201-1.765,1-3.219c-2.117-2.559-6.69-6.971-9.344-9.625c-0.442-0.442-0.506-0.776,0-1.219
		c2.559-2.18,4.564-4.001,7.281-6.719c0.506-0.506,0.164-1.344-0.5-1.344c-1.611-0.032-3.232-0.032-4.844,0
		c-0.6,0-1.087,0.181-1.688,0.75l-6.188,5.781c-0.316,0.253-0.591,0.531-0.875,0.531c-0.158,0-0.344-0.182-0.344-0.656l-0.031-3.562
		c0-1.58-1.047-2.844-2.438-2.844H141.849z M194.537,70.042c-1.565,0.013-3.07,0.023-4.5,0.062c-1.137,0.032-2.06,0.633-2.25,2.719
		c-0.19,1.769-0.219,5.337-0.219,8.812c0,3.507,0.029,6.891,0.219,8.312c0.19,1.422,1.113,2.219,2.25,2.219h19.5
		c0.916,0,1.781-1.229,1.781-3.188c0-1.232-0.869-1.469-1.438-1.469h-7.875c-1.011,0-1.281-0.585-1.281-1.375v-1.531
		c0-1.043,0.269-1.625,1.375-1.625h5.156c0.948,0,1.531-0.137,1.531-1.938c0-1.833-0.647-1.938-1.469-1.938h-5.75
		c-0.569,0-0.844-0.368-0.844-0.969v-2.281c0-0.916,0.521-1.562,1.438-1.562h6.969c1.295,0,1.625-0.864,1.625-1.875
		c0-1.137-0.327-2.375-1.875-2.375C204.354,70.042,199.232,70.002,194.537,70.042z M281.943,70.042l-10.812,0.062
		c-1.485,0-2.01,1.359-1.062,2.781l6.375,10.719c0,2.717-0.001,3.465,0.062,6.656c0.032,0.853,0.798,1.811,2.125,1.906
		c1.58,0.095,3.327,0.125,4.812,0.125c1.359,0,2.798-0.03,4.156-0.125c1.327-0.095,2.093-1.053,2.125-1.906
		c0.063-1.959,0.156-5.541,0.156-7.469l7.062-11.219c0.506-0.695,0.414-1.531-0.281-1.531h-4.094c-0.632,0-0.996,0.214-1.375,0.688
		l-3.219,5.031c-0.348,0.411-0.623,0.594-0.844,0.594c-0.253,0-0.434-0.245-0.781-0.719l-1.938-4.125
		C283.622,70.405,283.239,70.042,281.943,70.042z M66.631,73.635c2.465-0.095,3.188,0.735,3.188,2.062
		c0,1.201-1.071,1.812-3.188,1.812c-0.537,0-0.719-0.341-0.719-0.594l-0.031-2.594C65.881,73.849,66.125,73.635,66.631,73.635
		L66.631,73.635z M243.756,75.792c2.907,0,4.156,1.855,4.156,3.656c0,1.833-1.407,3.656-4.188,3.656c-0.6,0-0.656-0.278-0.656-0.594
		l-0.062-5.844C243.006,76.066,243.219,75.792,243.756,75.792z M105.662,78.885c0.474,0,0.747,0.212,1.031,0.812l1.188,2.719
		c0.348,0.79-0.209,1.406-1.062,1.406h-2.875c-0.695,0-0.941-0.649-0.656-1.312l1.438-2.875
		C104.946,79.193,105.314,78.885,105.662,78.885z M67.506,81.917c1.681,0.018,3.5,0.721,3.5,2.656c0,2.496-2.163,3.25-4.438,3.25
		c-0.442,0-0.688-0.371-0.688-0.719l0.031-4.094c0-0.822,0.401-1.031,0.875-1.062C67.016,81.924,67.265,81.914,67.506,81.917
		L67.506,81.917z"/>
	<path id="path3288" fill-rule="evenodd" clip-rule="evenodd" fill="#343434" d="M175.912,43.635c-0.611,0-1.22,0.215-1.688,0.656
		l-5.156,4.844L11.443,51.604l157.625,2.438l5.156,4.844c0.934,0.882,2.441,0.882,3.375,0l5.156-4.844l157.75-2.438l-157.75-2.469
		l-5.156-4.844C177.132,43.85,176.523,43.635,175.912,43.635z"/>
</g>
</svg>
