<svg id="Layer_1" xmlns="http://www.w3.org/2000/svg" viewBox="0 0 128 128"><style>.st1,.st3{fill:none;stroke:#393a3a;stroke-width:3.202;stroke-miterlimit:10}.st3{fill:#fff}</style><path d="M103.9 104.3H33.4c-2.4 0-4.2-1.9-4.2-4.2v-65c0-2.4 1.9-4.2 4.2-4.2h70.4c2.4 0 4.2 1.9 4.2 4.2v64.8c.2 2.4-1.7 4.4-4.1 4.4z" fill="#b7e1f4"/><path class="st1" d="M98.6 99.1H28.2c-2.4 0-4.2-1.9-4.2-4.2v-65c0-2.4 1.9-4.2 4.2-4.2h70.4c2.4 0 4.2 1.9 4.2 4.2v64.8c.2 2.4-1.7 4.4-4.2 4.4z"/><path d="M37.2 102.3h-1.6c-1 0-1.6-.8-1.6-1.6v-1.6h4.8v1.6c.1.8-.7 1.6-1.6 1.6zm52.5 0h-1.6c-1 0-1.6-.8-1.6-1.6v-1.6h4.8v1.6c0 .8-.8 1.6-1.6 1.6z" fill="#393a3a" stroke="#393a3a" stroke-width="3.202" stroke-miterlimit="10"/><circle class="st3" cx="63.4" cy="38.1" r="3"/><path class="st1" d="M56.5 38.1h13.7"/><circle class="st3" cx="84.6" cy="38.1" r="3"/><path class="st1" d="M79.8 42.9l9.6-9.6"/><circle class="st3" cx="42.3" cy="38.1" r="3"/><path class="st1" d="M47.1 42.9l-9.6-9.6M103 50.2H23.9M38.3 55.8c-3 0-5.6 2.6-5.6 5.6v24c0 3 2.6 5.6 5.6 5.6h50.3c3 0 5.6-2.6 5.6-5.6v-24c0-3-2.6-5.6-5.6-5.6H38.3z"/><g><path class="st1" d="M71.1 67.8H55.7c-2.4 0-4.2-1.9-4.2-4.2v-.2h23.9v.2c0 2.3-1.9 4.2-4.3 4.2z"/></g></svg>