<?xml version="1.0" encoding="utf-8"?>
<!-- Generator: Adobe Illustrator 24.0.0, SVG Export Plug-In . SVG Version: 6.00 Build 0)  -->
<svg version="1.1" id="Layer_1" xmlns="http://www.w3.org/2000/svg" xmlns:xlink="http://www.w3.org/1999/xlink" x="0px" y="0px"
	 viewBox="0 0 128 128" style="enable-background:new 0 0 128 128;" xml:space="preserve">
<style type="text/css">
	.st0{fill:#B7E1F4;}
	.st1{fill:none;stroke:#393A3A;stroke-width:3.202;stroke-miterlimit:10;}
	.st2{fill:#393A3A;stroke:#393A3A;stroke-width:3.202;stroke-miterlimit:10;}
	.st3{fill:#FFFFFF;stroke:#393A3A;stroke-width:3.202;stroke-miterlimit:10;}
</style>
<g>
	<path class="st0" d="M103.9,104.3H33.4c-2.4,0-4.2-1.9-4.2-4.2v-65c0-2.4,1.9-4.2,4.2-4.2h70.4c2.4,0,4.2,1.9,4.2,4.2v64.8
		C108.2,102.3,106.3,104.3,103.9,104.3z"/>
</g>
<g>
	<path class="st1" d="M98.6,99.1H28.2c-2.4,0-4.2-1.9-4.2-4.2v-65c0-2.4,1.9-4.2,4.2-4.2h70.4c2.4,0,4.2,1.9,4.2,4.2v64.8
		C103,97.1,101.1,99.1,98.6,99.1z"/>
</g>
<path class="st2" d="M37.2,102.3h-1.6c-1,0-1.6-0.8-1.6-1.6v-1.6h4.8v1.6C38.9,101.5,38.1,102.3,37.2,102.3z"/>
<path class="st2" d="M89.7,102.3h-1.6c-1,0-1.6-0.8-1.6-1.6v-1.6h4.8v1.6C91.3,101.5,90.5,102.3,89.7,102.3z"/>
<g>
	<g>
		<circle class="st3" cx="63.4" cy="38.1" r="3"/>
		<line class="st1" x1="56.5" y1="38.1" x2="70.2" y2="38.1"/>
	</g>
	<g>
		<circle class="st3" cx="84.6" cy="38.1" r="3"/>
		<line class="st1" x1="79.8" y1="42.9" x2="89.4" y2="33.3"/>
	</g>
	<g>
		<circle class="st3" cx="42.3" cy="38.1" r="3"/>
		<line class="st1" x1="47.1" y1="42.9" x2="37.5" y2="33.3"/>
	</g>
</g>
<line class="st1" x1="103" y1="50.2" x2="23.9" y2="50.2"/>
<g>
	<path class="st1" d="M38.3,55.8c-3,0-5.6,2.6-5.6,5.6v24c0,3,2.6,5.6,5.6,5.6h50.3c3,0,5.6-2.6,5.6-5.6v-24c0-3-2.6-5.6-5.6-5.6
		H38.3z"/>
</g>
<g>
	<path class="st1" d="M71.1,67.8H55.7c-2.4,0-4.2-1.9-4.2-4.2v-0.2h23.9v0.2C75.4,65.9,73.5,67.8,71.1,67.8z"/>
</g>
</svg>
